# xmcd CD database file
#
# Track frame offsets:
#	150
#	16996
#	29201
#	41922
#	52754
#	64105
#	74566
#	97602
#	109046
#	130086
#	141607
#	156710
#	168643
#	180944
#	195754
#
# Disc length: 2848 seconds
#
# Revision: 0
# Processed by: cddbd v1.5.2PL0 Copyright (c) Steve Scherf et al.
# Submitted via: CDex 1.51
#
DISCID=d20b1e0f
DTITLE=Johnny Cash - Unchained
DYEAR=1996
DGENRE=Country
TTITLE0=Rowboat 
TTITLE1=Sea of Heartbreak
TTITLE2=Rusty Cage
TTITLE3=The One Rose
TTITLE4=Country Boy
TTITLE5=Memories are Made of This
TTITLE6=Spiritual
TTITLE7=Kneeling drunkard's plea
TTITLE8=Southern Accents
TTITLE9=Mean Eyed Cat
TTITLE10=Meet me in heaven
TTITLE11=I Never Picked Cotton
TTITLE12=Unchained
TTITLE13=I've Been Everywhere
TTITLE14=Boy Named Sue (uncensored)
EXTD=YEAR: 1996
EXTT0=
EXTT1=
EXTT2=
EXTT3=
EXTT4=
EXTT5=
EXTT6=
EXTT7=
EXTT8=
EXTT9=
EXTT10=
EXTT11=
EXTT12=
EXTT13=
EXTT14=
PLAYORDER=
